<svg width="512" height="512" viewBox="0 0 512 512" fill="none" xmlns="http://www.w3.org/2000/svg">
  <rect width="512" height="512" rx="110" fill="#F5110D"/>
  <path d="M0 110C0 49.2487 49.2487 0 110 0H402C462.751 0 512 49.2487 512 110V112H260C117.697 112 0 229.697 0 372V110Z" fill="#FF5850"/>
  <path d="M256 400C256 302.798 334.798 224 432 224H512V402C512 462.751 462.751 512 402 512H366C304.144 512 256 463.368 256 400Z" fill="#E00048"/>
  <path d="M211 145.502C221.667 145.502 232.3 148.558 241.484 154.571L360.104 232.219C377.931 243.882 378.515 269.726 361.235 282.182L242.615 367.679C218.772 384.869 186 367.827 186 338.61V174.572C186 158.458 198.537 145.502 211 145.502Z" fill="#DEDEDE"/>
</svg>
